<?xml version="1.0" standalone="no"?>
<!DOCTYPE svg PUBLIC "-//W3C//DTD SVG 20010904//EN"
 "http://www.w3.org/TR/2001/REC-SVG-20010904/DTD/svg10.dtd">
<svg version="1.0" xmlns="http://www.w3.org/2000/svg"
 width="612.000000pt" height="612.000000pt" viewBox="0 0 612.000000 612.000000"
 preserveAspectRatio="xMidYMid meet">
<metadata>
Created by potrace 1.16, written by Peter Selinger 2001-2019
</metadata>
<g transform="translate(0.000000,612.000000) scale(0.100000,-0.100000)"
fill="#000000" stroke="none">
<path d="M2389 5390 c-183 -46 -407 -222 -563 -440 -91 -128 -180 -309 -211
-434 -74 -293 17 -651 217 -858 230 -238 541 -250 779 -30 120 111 202 259
250 452 21 85 23 116 23 305 -2 563 -101 885 -302 989 -39 20 -143 29 -193 16z"/>
<path d="M3585 5391 c-180 -47 -293 -274 -336 -681 -6 -63 -12 -209 -13 -325
0 -189 2 -220 23 -305 78 -314 264 -533 506 -595 174 -44 366 15 510 159 205
205 304 566 235 856 -102 422 -524 874 -835 895 -33 2 -73 1 -90 -4z"/>
<path d="M1070 4017 c-159 -45 -296 -239 -367 -524 -25 -97 -28 -126 -28 -288
0 -206 10 -256 76 -394 53 -113 112 -193 205 -280 207 -193 463 -242 660 -125
197 116 297 382 250 666 -19 118 -51 208 -128 361 -211 422 -462 642 -668 584z"/>
<path d="M4916 4019 c-118 -29 -259 -148 -380 -323 -85 -122 -206 -354 -245
-471 -139 -419 30 -818 371 -875 262 -45 559 149 707 461 66 138 76 188 76
394 0 163 -3 190 -28 289 -92 365 -294 576 -501 525z"/>
<path d="M2869 3391 c-104 -22 -224 -73 -310 -131 -117 -79 -184 -154 -314
-350 -138 -207 -254 -344 -401 -470 -218 -188 -295 -278 -371 -435 -67 -140
-87 -233 -81 -385 5 -105 10 -137 33 -199 91 -240 305 -417 590 -490 238 -60
487 -47 761 38 207 65 355 64 578 -3 280 -85 521 -95 763 -31 306 81 537 294
598 555 21 94 19 249 -5 346 -42 163 -168 368 -302 489 -29 27 -93 79 -143
116 -187 141 -273 241 -386 450 -94 175 -181 276 -322 371 -189 128 -454 178
-688 129z"/>
</g>
</svg>
